<svg xmlns="http://www.w3.org/2000/svg" version="1.1" xmlns:xlink="http://www.w3.org/1999/xlink" xmlns:svgjs="http://svgjs.dev/svgjs" width="2000" height="525" viewBox="0 0 2000 525"><g transform="matrix(1,0,0,1,-1.2121019113340026,-0.4338366709518482)"><svg viewBox="0 0 396 104" data-background-color="#ffffff" preserveAspectRatio="xMidYMid meet" height="525" width="2000" xmlns="http://www.w3.org/2000/svg" xmlns:xlink="http://www.w3.org/1999/xlink"><g id="tight-bounds" transform="matrix(1,0,0,1,0.23999617844413024,0.08594108994560656)"><svg viewBox="0 0 395.52 103.82811793142777" height="103.82811793142777" width="395.52"><g><svg viewBox="0 0 594.4527953937777 156.05004789849326" height="103.82811793142777" width="395.52"><g><rect width="10.182890277232671" height="113.48067882632829" x="162.09312428609306" y="21.284684536082487" fill="#010c80" opacity="1" stroke-width="0" stroke="transparent" fill-opacity="1" class="rect-o-0" data-fill-palette-color="primary" rx="1%" id="o-0" data-palette-color="#010c80"></rect></g><g transform="matrix(1,0,0,1,198.93279539377775,21.56697478191912)"><svg viewBox="0 0 395.52 112.91609833465502" height="112.91609833465502" width="395.52"><g id="textblocktransform"><svg viewBox="0 0 395.52 112.91609833465502" height="112.91609833465502" width="395.52" id="textblock"><g><svg viewBox="0 0 395.52 112.91609833465502" height="112.91609833465502" width="395.52"><g transform="matrix(1,0,0,1,0,0)"><svg width="395.52" viewBox="3 -35.5 126.08999633789062 36" height="112.91609833465502" data-palette-color="#010c80"><g class="undefined-text-0" data-fill-palette-color="primary" id="text-0"><path d="M3-17.5L3-17.5Q3.05-25.85 7.63-30.43 12.2-35 20.25-35L20.25-35 23.5-35 23.5-30.6 19.65-30.6Q14.1-30.6 11.13-26.93 8.15-23.25 8.05-17.5L8.05-17.5Q8.15-11.75 11.13-8.08 14.1-4.4 19.65-4.4L19.65-4.4 23.5-4.4 23.5 0 20.25 0Q12.2 0 7.63-4.58 3.05-9.15 3-17.5ZM57.1-17.35L57.1-17.35Q57.05-20.15 56.27-22.65 55.5-25.15 54.02-27.03 52.55-28.9 50.45-30 48.35-31.1 45.7-31.1L45.7-31.1Q43.05-31.1 40.95-30 38.85-28.9 37.37-27.03 35.9-25.15 35.12-22.65 34.35-20.15 34.3-17.35L34.3-17.35Q34.35-14.5 35.12-12.05 35.9-9.6 37.37-7.8 38.85-6 40.95-4.95 43.05-3.9 45.7-3.9L45.7-3.9Q48.35-3.9 50.45-4.95 52.55-6 54.02-7.8 55.5-9.6 56.27-12.05 57.05-14.5 57.1-17.35ZM29.25-17.35L29.25-17.35Q29.3-21.5 30.5-24.85 31.7-28.2 33.85-30.58 36-32.95 39-34.23 42-35.5 45.7-35.5L45.7-35.5Q49.35-35.5 52.37-34.23 55.4-32.95 57.55-30.58 59.7-28.2 60.9-24.85 62.1-21.5 62.15-17.35L62.15-17.35Q62.1-13.2 60.92-9.9 59.75-6.6 57.6-4.3 55.45-2 52.42-0.75 49.4 0.5 45.7 0.5L45.7 0.5Q42 0.5 38.97-0.75 35.95-2 33.8-4.3 31.65-6.6 30.47-9.9 29.3-13.2 29.25-17.35ZM79.45-4.4L88-4.4 88 0 80.7 0Q78.65 0 77.47-0.08 76.3-0.15 74.55-0.68 72.8-1.2 71.6-2.25L71.6-2.25Q69.75-3.95 69.2-6.33 68.65-8.7 68.65-11.9L68.65-11.9 68.65-35 73.35-35 73.35-12Q73.35-9.1 74-7.45L74-7.45Q75.3-4.4 79.45-4.4L79.45-4.4ZM97.44-35L97.44 0 92.74 0 92.74-35 97.44-35ZM109.14-30.6L109.14 0 104.44 0 104.44-35 116.79-35Q122.99-35 126.04-32.23 129.09-29.45 129.09-23.5L129.09-23.5 129.09 0 124.39 0 124.39-24.15Q124.39-27.55 122.32-29.08 120.24-30.6 116.84-30.6L116.84-30.6 109.14-30.6Z" fill="#010c80" data-fill-palette-color="primary"></path></g></svg></g></svg></g></svg></g></svg></g><g><svg viewBox="0 0 135.43634345564104 156.05004789849326" height="156.05004789849326" width="135.43634345564104"><g><svg xmlns="http://www.w3.org/2000/svg" data-name="Layer 1" viewBox="14.119999885559082 9.420000076293945 61.7599983215332 71.16000366210938" x="0" y="0" height="156.05004789849326" width="135.43634345564104" class="icon-icon-0" data-fill-palette-color="accent" id="icon-0"><path d="M45.13 9.42L14.25 27.1l-0.13 35.58 30.75 17.9L75.75 62.9l0.13-35.58Zm-29 52.11l0.12-33.27L45.12 11.73 73.87 28.47h0L45 45l-0.12 33.27Z" fill="#0023ff" data-fill-palette-color="accent"></path></svg></g></svg></g></svg></g><defs></defs></svg><rect width="395.52" height="103.82811793142777" fill="none" stroke="none" visibility="hidden"></rect></g></svg></g></svg>